#!OML:ASF H:\charlestonDancing\Project 1\Capture day 1\Session 1\femaleDancer.ASF
:FULLY-SPECIFIED
:DEGREES
513
root -15.0198 17.6196 0.205547 -9.15596 -104.84 10.2451
lowerback 7.2352 -3.25033 1.83948
upperback -1.86615 -4.1344 0.630773
thorax -6.08761 -2.09328 0.142615
lowerneck 3.64989 -13.0227 -5.28521
upperneck 4.96042 -17.6235 0.0161178
head 1.4305 -8.92564 0.734856
rclavicle -6.43895e-015 4.87022e-015
rhumerus -207.574 171.927 -265.913
rradius 18.4287
rwrist 48.2369
rhand -17.2701 -33.6412
rfingers 7.12502
rthumb 188.975 116.57
lclavicle -6.43895e-015 4.87022e-015
lhumerus -103.054 42.2779 -6.35727
lradius 11.3848
lwrist -48.4746
lhand -31.5109 13.756
lfingers 7.12502
lthumb -4.7765 43.6821
rfemur -15.1143 0.832969 18.2817
rtibia 35.8724
rfoot -21.718 2.41139
rtoes -17.4045
lfemur -7.58335 -3.49955 -11.5844
ltibia 34.4589
lfoot -21.9689 -0.863797
ltoes -25.1604
514
root -15.0073 17.6126 0.188713 -8.76978 -105.342 9.77648
lowerback 7.37005 -3.24216 1.6592
upperback -1.78435 -4.13272 0.732152
thorax -6.05726 -2.08345 0.352637
lowerneck 3.2746 -12.9278 -4.91094
upperneck 4.92886 -17.4528 -0.295602
head 1.4111 -8.83461 0.571842
rclavicle -3.21911e-014 1.78906e-015
rhumerus -207.685 172.463 -265.533
rradius 18.7896
rwrist 46.8028
rhand -16.898 -33.6945
rfingers 7.12502
rthumb 189.334 116.532
lclavicle -3.21911e-014 1.78906e-015
lhumerus -96.7432 43.1045 3.8135
lradius 12.1729
lwrist -39.288
lhand -31.5964 12.7134
lfingers 7.12502
lthumb -4.85907 42.6377
rfemur -14.9036 1.24572 18.3248
rtibia 35.9686
rfoot -21.9031 2.22673
rtoes -18.3672
lfemur -7.43697 -3.2693 -11.6248
ltibia 34.5294
lfoot -21.9758 -0.304588
ltoes -26.0263
515
root -14.9995 17.6129 0.176496 -7.83022 -105.517 8.65945
lowerback 7.57711 -3.31979 1.35385
upperback -1.72214 -4.26082 0.74349
thorax -6.08718 -2.13435 0.56072
lowerneck 2.93716 -12.8139 -4.65333
upperneck 4.98666 -17.2688 -0.527462
head 1.43405 -8.74075 0.447121
rclavicle -8.29546e-014 5.96354e-016
rhumerus -208.023 172.256 -265.429
rradius 19.4019
rwrist 44.6129
rhand -17.0319 -33.5877
rfingers 7.12502
rthumb 189.205 116.633
lclavicle -8.29546e-014 5.96354e-016
lhumerus -90.6788 43.1546 13.2799
lradius 13.2138
lwrist -30.3058
lhand -30.8504 10.9396
lfingers 7.12502
lthumb -4.13871 40.8792
rfemur -14.7811 1.14749 18.0674
rtibia 36.0884
rfoot -21.9772 2.4002
rtoes -19.1438
lfemur -7.23408 -3.27996 -11.9652
ltibia 34.5349
lfoot -22.0027 0.211997
ltoes -26.4885
516
root -14.9902 17.6159 0.166217 -6.91553 -105.472 7.65907
lowerback 7.70366 -3.42783 1.11942
upperback -1.70503 -4.42628 0.729585
thorax -6.12502 -2.20692 0.705228
lowerneck 2.95715 -12.6788 -4.50989
upperneck 4.78695 -17.0829 -0.566908
head 1.34558 -8.6423 0.430038
rclavicle -1.50887e-013 1.44119e-015
rhumerus -208.527 171.591 -265.514
rradius 20.2022
rwrist 42.043
rhand -17.4073 -33.815
rfingers 7.12502
rthumb 188.842 116.39
lclavicle -1.50887e-013 1.44119e-015
lhumerus -86.4479 42.7483 19.6622
lradius 14.1333
lwrist -24.4832
lhand -30.2332 7.99604
lfingers 7.12502
lthumb -3.54267 37.9463
rfemur -14.8407 0.767464 17.7838
rtibia 36.2333
rfoot -22.0716 2.72933
rtoes -19.4438
lfemur -7.1699 -3.43928 -12.2981
ltibia 34.5025
lfoot -22.0835 0.407961
ltoes -25.7915
517
root -14.9834 17.615 0.155578 -6.40848 -105.295 7.12943
lowerback 7.66837 -3.5756 1.03414
upperback -1.64447 -4.63307 0.723059
thorax -6.03508 -2.30613 0.767226
lowerneck 3.14483 -12.5614 -4.59811
upperneck 4.44323 -16.9417 -0.284802
head 1.23698 -8.56409 0.553371
rclavicle 2.96352e-014 -2.38542e-015
rhumerus -208.938 170.832 -265.674
rradius 20.926
rwrist 39.8831
rhand -17.8871 -34.1823
rfingers 7.12502
rthumb 188.379 116.004
lclavicle 2.96352e-014 -2.38542e-015
lhumerus -81.3742 42.0321 26.9453
lradius 15.4518
lwrist -19.3379
lhand -28.8847 8.81384
lfingers 7.12502
lthumb -2.24032 38.7818
rfemur -14.8892 0.247572 17.6212
rtibia 36.3936
rfoot -22.2551 3.01696
rtoes -19.5116
lfemur -7.15402 -3.55536 -12.4671
ltibia 34.3946
lfoot -22.071 0.434729
ltoes -25.2189
